# xmcd
#
# Track frame offsets:
# 150
# 36900
# 57175
#
# Disc length: 1095 seconds
#
#
# Revision: 0
# Processed by: cddbd v1.5.1PL0 Copyright (c) Steve Scherf et al.
# Submitted via: FreeRIP 2.90 
#
DISCID=20044503
DTITLE=Lenny Williams - Gotta Lotta Luv
DYEAR=1900
DGENRE=House
TTITLE0=Gotta Lotta Luv (House Mix)
TTITLE1=Gotta Lotta Luv (Original Mix)
TTITLE2=Gotta Lotta Luv (Urban Dub Mix)
EXTD=
EXTT0=
EXTT1=
EXTT2=
PLAYORDER=
